<?xml version="1.0" encoding="utf-8"?>
<!-- Generator: Adobe Illustrator 24.0.3, SVG Export Plug-In . SVG Version: 6.00 Build 0)  -->
<svg version="1.1" id="Layer_1" xmlns="http://www.w3.org/2000/svg" xmlns:xlink="http://www.w3.org/1999/xlink" x="0px" y="0px"
	 viewBox="0 0 623 629" style="enable-background:new 0 0 623 629;" xml:space="preserve">
<style type="text/css">
	.st0{fill:#FFFFFF;}
</style>
<title>smiley</title>
<path class="st0" d="M227.8,303.2c-9.3,0-16.9-7.6-16.9-16.9V185.2c0.2-9.3,8-16.7,17.3-16.5c9,0.2,16.2,7.5,16.5,16.5v101.1
	C244.6,295.6,237.1,303.2,227.8,303.2C227.8,303.2,227.8,303.2,227.8,303.2z"/>
<path class="st0" d="M395.2,303.2c-9.3,0-16.9-7.5-16.9-16.9c0,0,0,0,0,0V185.2c0.2-9.3,8-16.7,17.3-16.5c9,0.2,16.2,7.5,16.5,16.5
	v101.1C412.1,295.6,404.6,303.2,395.2,303.2z"/>
<path class="st0" d="M311.5,460.7c-49.9,0-95.6-27.5-119-71.5c-4.4-8.2-1.3-18.4,7-22.8c8.2-4.4,18.4-1.3,22.8,7
	c26.2,49.3,87.4,68,136.7,41.8c17.8-9.5,32.4-24,41.8-41.8c4.4-8.2,14.6-11.3,22.8-7c8.2,4.4,11.3,14.6,7,22.8
	C407.2,433.2,361.4,460.7,311.5,460.7z"/>
</svg>
