<svg xmlns="http://www.w3.org/2000/svg" viewBox="0 0 364.44 89"><defs><style>.a{fill:#253b80;}.b{fill:#179bd7;}.c{fill:#222d65;}</style></defs><path class="a" d="M136.23,19.9H116a2.8,2.8,0,0,0-2.8,2.4L105,74a1.69,1.69,0,0,0,1.4,1.9h9.9a2.8,2.8,0,0,0,2.8-2.4l2.2-13.9a2.8,2.8,0,0,1,2.8-2.4h6.4c13.3,0,21-6.4,23-19.2.9-5.6,0-10-2.6-13C148.13,21.7,143,19.9,136.23,19.9Zm2.4,18.9c-1.1,7.2-6.6,7.2-12,7.2h-3l2.1-13.5a1.65,1.65,0,0,1,1.7-1.4h1.4c3.6,0,7.1,0,8.9,2.1C138.73,34.4,139,36.2,138.63,38.8Zm57.9-.2h-9.7a1.81,1.81,0,0,0-1.7,1.4l-.4,2.7-.7-1c-2.1-3-6.8-4-11.4-4-10.7,0-19.8,8.1-21.6,19.4-.9,5.7.4,11.1,3.6,14.8,2.9,3.5,7.2,4.9,12.2,4.9a18.64,18.64,0,0,0,13.4-5.5l-.4,2.7a1.69,1.69,0,0,0,1.4,1.9h9a2.8,2.8,0,0,0,2.8-2.4l5.2-33.1a1.69,1.69,0,0,0-1.4-1.9A.37.37,0,0,1,196.53,38.6Zm-13.4,18.7a10.73,10.73,0,0,1-10.9,9.2,8.28,8.28,0,0,1-6.5-2.6,8.17,8.17,0,0,1-1.5-6.8A10.79,10.79,0,0,1,175,47.8a8.07,8.07,0,0,1,6.4,2.6A8.64,8.64,0,0,1,183.13,57.3ZM248,38.6h-9.7a2.94,2.94,0,0,0-2.3,1.2l-13.4,19.7-5.7-18.9a2.88,2.88,0,0,0-2.7-2h-9.5a1.69,1.69,0,0,0-1.7,1.7.75.75,0,0,0,.1.5l10.7,31.4-10,14.2a1.61,1.61,0,0,0,.4,2.3,1.69,1.69,0,0,0,1,.3h9.7a2.68,2.68,0,0,0,2.3-1.2l32.3-46.6a1.7,1.7,0,0,0-.4-2.3,3,3,0,0,0-1.1-.3Z"/><path class="b" d="M280.13,19.9h-20.2a2.8,2.8,0,0,0-2.8,2.4L248.93,74a1.69,1.69,0,0,0,1.4,1.9h10.6a1.86,1.86,0,0,0,1.9-1.7l2.3-14.7a2.8,2.8,0,0,1,2.8-2.4h6.4c13.3,0,21-6.4,23-19.2.9-5.6,0-10-2.6-13C291.93,21.7,286.83,19.9,280.13,19.9Zm2.3,18.9c-1.1,7.2-6.6,7.2-12,7.2h-3l2.1-13.5a1.65,1.65,0,0,1,1.7-1.4h1.4c3.6,0,7.1,0,8.9,2.1C282.53,34.4,282.83,36.2,282.43,38.8Zm58-.2h-9.7A1.81,1.81,0,0,0,329,40l-.4,2.7-.7-1c-2.1-3-6.7-4-11.4-4-10.7,0-19.8,8.1-21.6,19.4-.9,5.7.4,11.1,3.6,14.8,2.9,3.5,7.2,4.9,12.2,4.9a18.64,18.64,0,0,0,13.4-5.5l-.4,2.7a1.69,1.69,0,0,0,1.4,1.9h9a2.8,2.8,0,0,0,2.8-2.4l5.2-33.1a1.69,1.69,0,0,0-1.4-1.9A.77.77,0,0,1,340.43,38.6Zm-13.5,18.7A10.73,10.73,0,0,1,316,66.5a8.28,8.28,0,0,1-6.5-2.6,8.17,8.17,0,0,1-1.5-6.8,10.79,10.79,0,0,1,10.8-9.3,8.07,8.07,0,0,1,6.4,2.6A8.64,8.64,0,0,1,326.93,57.3Zm24.8-36L343.43,74a1.69,1.69,0,0,0,1.4,1.9h8.6a2.8,2.8,0,0,0,2.8-2.4l8.2-51.7a1.69,1.69,0,0,0-1.4-1.9h-9.6A1.81,1.81,0,0,0,351.73,21.3Z"/><path class="a" d="M21.43,86l1.5-9.8-3.4-.1H3.13L14.53,3.8a1,1,0,0,1,.9-.8h27.7c9.2,0,15.5,1.9,18.8,5.7a12.62,12.62,0,0,1,3,5.7,20.28,20.28,0,0,1,0,7.8v2.2l1.6.9a10.34,10.34,0,0,1,3.1,2.4,10.65,10.65,0,0,1,2.5,5.7,21.85,21.85,0,0,1-.4,8.3,30.62,30.62,0,0,1-3.4,9.4,20.26,20.26,0,0,1-5.4,5.9,21.57,21.57,0,0,1-7.2,3.3,36.23,36.23,0,0,1-9.1,1h-2.2a7.17,7.17,0,0,0-4.2,1.5A6.68,6.68,0,0,0,38,66.7l-.2.9-2.5,17.3-.1.6a.52.52,0,0,1-.2.4.37.37,0,0,1-.3.1Z"/><path class="b" d="M67.93,22.6c-.1.5-.2,1.1-.3,1.6C64,42.9,51.53,49.4,35.53,49.4h-8.1a4,4,0,0,0-3.9,3.3l-4.1,26.4-1.2,7.5a2.12,2.12,0,0,0,1.7,2.4h14.7A3.36,3.36,0,0,0,38,86.1l.1-.7,2.7-17.2.2-.9a3.44,3.44,0,0,1,3.4-2.9h2.2c13.9,0,24.9-5.7,28.1-22,1.3-6.8.6-12.6-2.9-16.6A11,11,0,0,0,67.93,22.6Z"/><path class="c" d="M64.13,21.1c-1.2-.3-2.3-.6-3.5-.8a43.59,43.59,0,0,0-7.2-.5H31.83a3.36,3.36,0,0,0-3.4,2.9l-4.7,29.2-.1.9a4,4,0,0,1,3.9-3.3h8.1c15.9,0,28.4-6.5,32.1-25.2.1-.6.2-1.1.3-1.6-1-.5-2-.9-3-1.3A3.18,3.18,0,0,0,64.13,21.1Z"/><path class="a" d="M28.33,22.7a3.44,3.44,0,0,1,3.4-2.9h21.7a53.08,53.08,0,0,1,7.2.5,34.83,34.83,0,0,1,4.4,1,20.81,20.81,0,0,1,3,1.3c1.1-6.9,0-11.6-3.8-15.9C60.13,2,52.63,0,43.13,0H15.43a4,4,0,0,0-3.9,3.3L0,76.3A2.37,2.37,0,0,0,2,79h17.4l4.3-27.2C23.73,51.9,28.33,22.7,28.33,22.7Z"/></svg>